<?xml version="1.0" encoding="UTF-8"?>
<!-- Generator: visioncortex VTracer 0.6.2 -->
<svg version="1.1" xmlns="http://www.w3.org/2000/svg" width="1280" height="809">
<path d="M0 0 C1.50309481 0.01927204 3.00619242 0.03832643 4.5092926 0.05717468 C7.63834441 0.09788349 10.76729349 0.14307632 13.89624023 0.19116211 C17.90652026 0.25215807 21.91682967 0.29888573 25.92733669 0.34199238 C29.02176221 0.37730028 32.11601231 0.42153402 35.21028328 0.46834373 C36.68982948 0.48937308 38.16942349 0.50728018 39.64904594 0.52199745 C41.70957162 0.54353499 43.76953725 0.57743318 45.82983398 0.61450195 C47.5866172 0.63901176 47.5866172 0.63901176 49.37889099 0.66401672 C52.25390625 0.94921875 52.25390625 0.94921875 55.25390625 2.94921875 C55.63291377 4.85191929 55.63291377 4.85191929 55.63866711 7.22459602 C55.64812365 8.12729418 55.65758019 9.02999233 55.66732329 9.96004498 C55.66247572 10.95808396 55.65762814 11.95612293 55.65263367 12.98440552 C55.65928049 14.03967088 55.66592732 15.09493623 55.67277557 16.18217933 C55.69152586 19.74150353 55.68879218 23.30049512 55.6862793 26.85986328 C55.6952891 29.40200276 55.70561437 31.94413787 55.71716309 34.48626709 C55.73910564 39.97127367 55.75184189 45.45618043 55.75629234 50.94122696 C55.76274276 58.87171407 55.78566048 66.80208581 55.81263564 74.73252653 C55.85594891 87.5981981 55.88588968 100.46386482 55.9074707 113.32958984 C55.92846682 125.82961408 55.95572992 138.32959865 55.99145508 150.82958984 C55.9936539 151.59970926 55.99585273 152.36982867 55.99811818 153.16328503 C56.00918749 157.02663445 56.02038037 160.88998349 56.03163469 164.75333238 C56.12488403 196.81859477 56.19645217 228.88387155 56.25390625 260.94921875 C59.63705207 259.50287162 59.63705207 259.50287162 61.50390625 256.32421875 C61.87515625 255.14859375 61.87515625 255.14859375 62.25390625 253.94921875 C62.91390625 253.94921875 63.57390625 253.94921875 64.25390625 253.94921875 C64.640625 252.66144531 64.640625 252.66144531 65.03515625 251.34765625 C66.29951658 247.82203611 67.86973943 244.80764062 69.75390625 241.57421875 C70.36234375 240.51460937 70.97078125 239.455 71.59765625 238.36328125 C72.14421875 237.56664062 72.69078125 236.77 73.25390625 235.94921875 C73.91390625 235.94921875 74.57390625 235.94921875 75.25390625 235.94921875 C75.48078125 235.12421875 75.70765625 234.29921875 75.94140625 233.44921875 C77.24201653 229.98092467 78.82526463 227.30363324 80.83203125 224.22265625 C82.42963933 221.66823893 83.83997392 219.04695226 85.25390625 216.38671875 C87.00615649 213.12157204 88.79824789 210.05185754 91.00390625 207.07421875 C93.25597057 204.21276115 93.25597057 204.21276115 94.1640625 201.6640625 C96.2624352 196.43693338 99.34890801 191.67158777 102.17822266 186.81103516 C103.22207416 185.00431441 104.24656436 183.18798313 105.265625 181.3671875 C105.88050781 180.28050781 106.49539063 179.19382812 107.12890625 178.07421875 C107.96035156 176.59308594 107.96035156 176.59308594 108.80859375 175.08203125 C109.28554688 174.37820313 109.7625 173.674375 110.25390625 172.94921875 C110.91390625 172.94921875 111.57390625 172.94921875 112.25390625 172.94921875 C112.39828125 172.16546875 112.54265625 171.38171875 112.69140625 170.57421875 C113.25390625 167.94921875 113.25390625 167.94921875 114.25390625 165.94921875 C114.91390625 165.94921875 115.57390625 165.94921875 116.25390625 165.94921875 C116.31578125 165.26859375 116.37765625 164.58796875 116.44140625 163.88671875 C117.37948638 160.49519828 118.89672961 158.48654759 120.984375 155.70703125 C123.45727011 152.28302263 125.01713607 148.71872182 126.25390625 144.69921875 C127.25390625 141.94921875 127.25390625 141.94921875 130.25390625 139.94921875 C131.68446597 137.72110485 131.68446597 137.72110485 133.00390625 135.07421875 C135.70013575 129.9680261 138.53791554 124.97316111 141.46484375 119.99609375 C142.66666054 117.94933153 143.8592547 115.89712842 145.04296875 113.83984375 C148.17292899 108.40722553 151.38436883 103.11439661 154.9921875 97.984375 C156.39397909 95.72328082 157.33130902 93.43979814 158.25390625 90.94921875 C158.91390625 90.94921875 159.57390625 90.94921875 160.25390625 90.94921875 C160.516875 90.07652344 160.77984375 89.20382812 161.05078125 88.3046875 C162.24067237 84.98612754 163.68071308 82.27162999 165.50390625 79.26171875 C167.78061416 75.4863522 169.95373348 71.68339039 172.05078125 67.8046875 C175.88249557 60.74213588 179.96718718 53.83364546 184.04296875 46.91015625 C187.90715911 40.32230749 191.6384577 33.6768666 195.25390625 26.94921875 C195.91390625 26.94921875 196.57390625 26.94921875 197.25390625 26.94921875 C197.35058594 26.24667969 197.44726562 25.54414063 197.546875 24.8203125 C198.37877777 21.44214379 199.77574957 18.99103405 201.56640625 16.01171875 C202.50806641 14.43583984 202.50806641 14.43583984 203.46875 12.828125 C204.81203638 10.66181851 206.17778191 8.54290737 207.62890625 6.44921875 C209.09904551 4.18746604 209.84752076 2.59072444 210.25390625 -0.05078125 C211.24390625 0.44421875 211.24390625 0.44421875 212.25390625 0.94921875 C214.69970298 1.00759825 217.11418476 1.00475648 219.55834961 0.95507812 C220.31150452 0.94386429 221.06465942 0.93265045 221.84063721 0.9210968 C223.4803363 0.89605106 225.12000063 0.86864563 226.75962639 0.83918762 C229.36293642 0.79262559 231.96627386 0.7525551 234.56971741 0.7142334 C241.04452541 0.61764429 247.51915067 0.51056431 253.99377441 0.40240479 C259.45103195 0.31147837 264.90832329 0.22527592 270.36575508 0.14546204 C272.91531942 0.10628968 275.46470052 0.06028064 278.0141449 0.01403809 C300.74558605 -0.35580158 300.74558605 -0.35580158 304.03794861 2.49279785 C304.43921463 2.97341675 304.84048065 3.45403564 305.25390625 3.94921875 C304.92519531 4.41328125 304.59648438 4.87734375 304.2578125 5.35546875 C298.51867148 13.69199879 293.73875074 22.58515801 288.8828125 31.453125 C285.97509079 36.75544106 282.87461518 41.93307007 279.75073242 47.10986328 C276.63352108 52.28712807 273.62461149 57.51980381 270.64453125 62.77734375 C268.68241674 66.22069677 266.68162138 69.64054218 264.67578125 73.05859375 C264.04115967 74.14084229 263.40653809 75.22309082 262.75268555 76.33813477 C261.47518468 78.51444471 260.19544632 80.68944299 258.91333008 82.86303711 C258.32575928 83.86471924 257.73818848 84.86640137 257.1328125 85.8984375 C256.60244385 86.79908936 256.0720752 87.69974121 255.52563477 88.62768555 C254.14020615 90.992921 254.14020615 90.992921 253.25390625 93.94921875 C252.59390625 94.27921875 251.93390625 94.60921875 251.25390625 94.94921875 C250.31393422 96.78838777 249.38163797 98.6318263 248.48535156 100.49267578 C246.0993253 105.2524292 243.32833268 109.79992112 240.62890625 114.38671875 C240.0042749 115.45293457 239.37964355 116.51915039 238.73608398 117.61767578 C235.65393553 122.87590104 232.56040547 128.12739399 229.46435547 133.37744141 C229.08553223 134.01987793 228.70670898 134.66231445 228.31640625 135.32421875 C227.92984863 135.9795459 227.54329102 136.63487305 227.14501953 137.31005859 C223.39146486 143.68763301 219.6977613 150.09943411 216.00390625 156.51171875 C197.42364187 188.76190031 197.42364187 188.76190031 188.38671875 203.69165039 C184.85829461 209.54933377 181.52581165 215.51436748 178.19921875 221.48828125 C177.01584347 223.5936437 175.79985498 225.68165892 174.52734375 227.734375 C172.76351653 230.80213584 172.70438181 232.44600041 173.25390625 235.94921875 C174.43509874 238.14344786 175.73457181 240.17150606 177.16015625 242.21484375 C178.25390625 243.94921875 178.25390625 243.94921875 178.25390625 245.94921875 C178.91390625 245.94921875 179.57390625 245.94921875 180.25390625 245.94921875 C180.25390625 246.60921875 180.25390625 247.26921875 180.25390625 247.94921875 C180.91390625 247.94921875 181.57390625 247.94921875 182.25390625 247.94921875 C182.35574219 248.49320313 182.45757813 249.0371875 182.5625 249.59765625 C183.42505918 252.53133212 184.80302248 254.91953612 186.31640625 257.57421875 C189.25390625 262.73039522 189.25390625 262.73039522 189.25390625 264.94921875 C190.24390625 264.61921875 191.23390625 264.28921875 192.25390625 263.94921875 C192.52654297 264.96242188 192.52654297 264.96242188 192.8046875 265.99609375 C193.18173828 267.33414063 193.18173828 267.33414063 193.56640625 268.69921875 C193.81003906 269.5809375 194.05367187 270.46265625 194.3046875 271.37109375 C195.27673608 274.0112257 196.5424523 275.74398397 198.25390625 277.94921875 C198.25390625 278.60921875 198.25390625 279.26921875 198.25390625 279.94921875 C199.24390625 280.27921875 200.23390625 280.60921875 201.25390625 280.94921875 C201.52203125 281.77421875 201.79015625 282.59921875 202.06640625 283.44921875 C203.38887169 287.34701163 205.2818003 290.09230697 207.60546875 293.453125 C209.92618526 296.96719574 211.88387094 300.64537618 213.86328125 304.359375 C215.07146828 306.60945366 216.33068793 308.81297575 217.62890625 311.01171875 C219.25390625 313.94921875 219.25390625 313.94921875 219.25390625 315.94921875 C220.24390625 315.94921875 221.23390625 315.94921875 222.25390625 315.94921875 C224.25390625 319.69921875 224.25390625 319.69921875 224.25390625 321.94921875 C225.07133559 323.60289435 225.94477098 325.22904567 226.84375 326.83984375 C227.39272949 327.82791016 227.94170898 328.81597656 228.50732422 329.83398438 C229.08369629 330.86201172 229.66006836 331.89003906 230.25390625 332.94921875 C231.06239014 334.40618164 231.06239014 334.40618164 231.88720703 335.89257812 C233.5214589 338.83314822 235.1676322 341.7667702 236.81640625 344.69921875 C237.64301758 346.18228516 237.64301758 346.18228516 238.48632812 347.6953125 C241.88428559 353.7395887 241.88428559 353.7395887 245.78125 359.46484375 C248.47094537 363.09455331 250.53559891 366.99958505 252.66113281 370.97900391 C255.39663947 376.0801955 258.27391885 381.10173531 261.12890625 386.13671875 C261.721875 387.18408203 262.31484375 388.23144531 262.92578125 389.31054688 C264.36772485 391.85720534 265.81044277 394.40342156 267.25390625 396.94921875 C267.91390625 396.61921875 268.57390625 396.28921875 269.25390625 395.94921875 C269.4859375 396.93664062 269.71796875 397.9240625 269.95703125 398.94140625 C271.45314964 404.19368051 274.42641401 408.58466609 277.328125 413.1640625 C280.37898557 418.26182632 280.37898557 418.26182632 279.8046875 421.41796875 C279.29292969 422.25328125 278.78117187 423.08859375 278.25390625 423.94921875 C277.56213236 425.24711832 276.87367023 426.54678546 276.1875 427.84765625 C275.35933851 429.34199493 274.52709596 430.83407706 273.69140625 432.32421875 C273.02975464 433.50927002 273.02975464 433.50927002 272.35473633 434.71826172 C267.24857246 443.81392971 261.92744329 452.78031275 256.31640625 461.57421875 C254.61403595 464.35991561 253.44110771 466.93555352 252.25390625 469.94921875 C251.59390625 470.27921875 250.93390625 470.60921875 250.25390625 470.94921875 C249.10716491 473.10083652 248.04069135 475.24558794 247.00390625 477.44921875 C244.52360855 482.58823872 241.86790095 487.34629458 238.515625 491.984375 C237.08440469 494.21317938 236.16935525 496.46934048 235.25390625 498.94921875 C233.25390625 498.94921875 233.25390625 498.94921875 230.75390625 496.63671875 C227.46833268 493.10472716 226.01771989 490.65940286 225.25390625 485.94921875 C224.59390625 485.94921875 223.93390625 485.94921875 223.25390625 485.94921875 C223.00640625 485.04171875 222.75890625 484.13421875 222.50390625 483.19921875 C221.1781264 479.75219114 219.85596879 478.47243091 217.25390625 475.94921875 C216.18316033 473.98618457 215.19094882 471.97947765 214.25390625 469.94921875 C213.57427671 468.50798102 212.88652054 467.07055229 212.19140625 465.63671875 C211.70994141 464.62158203 211.70994141 464.62158203 211.21875 463.5859375 C210.34787604 461.76978541 210.34787604 461.76978541 208.25390625 460.94921875 C207.58723958 458.61588542 206.92057292 456.28255208 206.25390625 453.94921875 C205.59390625 453.61921875 204.93390625 453.28921875 204.25390625 452.94921875 C203.94453125 452.00046875 203.63515625 451.05171875 203.31640625 450.07421875 C202.28238966 447.03299347 201.54110457 446.02848995 199.25390625 443.94921875 C199.25390625 443.28921875 199.25390625 442.62921875 199.25390625 441.94921875 C198.59390625 441.28921875 197.93390625 440.62921875 197.25390625 439.94921875 C196.55239473 438.63388465 195.888647 437.29804283 195.25390625 435.94921875 C194.92390625 435.28921875 194.59390625 434.62921875 194.25390625 433.94921875 C193.57052211 432.58245046 192.90456389 431.20686624 192.25390625 429.82421875 C191.28250248 427.78370724 191.28250248 427.78370724 189.25390625 425.94921875 C188.92390625 424.95921875 188.59390625 423.96921875 188.25390625 422.94921875 C187.59390625 422.28921875 186.93390625 421.62921875 186.25390625 420.94921875 C185.55239473 419.63388465 184.888647 418.29804283 184.25390625 416.94921875 C183.90328125 416.30984375 183.55265625 415.67046875 183.19140625 415.01171875 C182.25390625 412.94921875 182.25390625 412.94921875 181.87890625 410.32421875 C181.49553205 407.77493262 181.49553205 407.77493262 179.19140625 406.63671875 C178.23234375 406.29640625 178.23234375 406.29640625 177.25390625 405.94921875 C177.25390625 405.28921875 177.25390625 404.62921875 177.25390625 403.94921875 C176.59390625 403.28921875 175.93390625 402.62921875 175.25390625 401.94921875 C174.58723958 400.28255208 173.92057292 398.61588542 173.25390625 396.94921875 C172.59390625 396.28921875 171.93390625 395.62921875 171.25390625 394.94921875 C170.94453125 394.14484375 170.63515625 393.34046875 170.31640625 392.51171875 C169.25431117 389.95019532 168.21746264 388.82352258 166.25390625 386.94921875 C166.25390625 386.28921875 166.25390625 385.62921875 166.25390625 384.94921875 C165.59390625 384.61921875 164.93390625 384.28921875 164.25390625 383.94921875 C163.57451451 381.95350552 162.90829066 379.95327102 162.25390625 377.94921875 C161.59390625 377.28921875 160.93390625 376.62921875 160.25390625 375.94921875 C160.25390625 374.62921875 160.25390625 373.30921875 160.25390625 371.94921875 C159.26390625 371.61921875 158.27390625 371.28921875 157.25390625 370.94921875 C156.25390625 367.94921875 156.25390625 367.94921875 156.25390625 364.94921875 C155.61453125 364.68109375 154.97515625 364.41296875 154.31640625 364.13671875 C152.25390625 362.94921875 152.25390625 362.94921875 151.25390625 359.94921875 C150.65578125 359.24796875 150.05765625 358.54671875 149.44140625 357.82421875 C147.08099463 354.72196347 145.70650577 351.72775762 144.1953125 348.16015625 C143.00260755 345.35903175 141.64023452 342.65886037 140.25390625 339.94921875 C139.90328125 339.18609375 139.55265625 338.42296875 139.19140625 337.63671875 C138.36068943 335.76732537 138.36068943 335.76732537 136.25390625 334.94921875 C133.93069802 331.36760606 132.02641839 327.63908906 130.25390625 323.76171875 C129.38246056 321.77720352 129.38246056 321.77720352 127.25390625 320.94921875 C126.62890625 318.38671875 126.62890625 318.38671875 126.25390625 315.94921875 C124.93390625 315.61921875 123.61390625 315.28921875 122.25390625 314.94921875 C121.99867188 315.81289063 121.7434375 316.6765625 121.48046875 317.56640625 C120.20179774 321.09293202 118.61410244 323.89330594 116.62890625 327.07421875 C111.89674937 334.76917916 107.41166463 342.60058638 102.94140625 350.44921875 C102.41664703 351.36988129 102.41664703 351.36988129 101.88128662 352.30914307 C97.94089573 359.21994261 97.94089573 359.21994261 94.01489258 366.13891602 C91.95102908 369.778712 89.78853074 373.34156836 87.56640625 376.88671875 C84.489787 381.83378266 81.5846656 386.85787237 78.75390625 391.94921875 C76.10718501 396.7087179 73.39837213 401.39638345 70.50390625 406.01171875 C66.06811551 413.11612404 61.99282306 420.41754617 57.90917969 427.72875977 C55.13890667 432.67537478 52.31996274 437.54904124 49.22338867 442.29956055 C48.08771571 444.10106476 48.08771571 444.10106476 47.25390625 446.94921875 C46.59390625 446.94921875 45.93390625 446.94921875 45.25390625 446.94921875 C45.02574219 447.76261719 44.79757812 448.57601563 44.5625 449.4140625 C42.94619457 453.78049954 40.72072204 457.53922008 38.31640625 461.51171875 C37.87361328 462.25357422 37.43082031 462.99542969 36.97460938 463.75976562 C35.73985761 465.82627268 34.49819718 467.88844567 33.25390625 469.94921875 C32.25314183 471.61542653 31.2531388 473.28209185 30.25390625 474.94921875 C29.88531494 475.56321533 29.51672363 476.17721191 29.13696289 476.80981445 C27.83794916 478.97853465 26.54560089 481.15113247 25.25390625 483.32421875 C24.815625 484.05382812 24.37734375 484.7834375 23.92578125 485.53515625 C21.3354039 489.90446744 19.14509165 494.23369726 17.25390625 498.94921875 C14.44140625 498.94921875 14.44140625 498.94921875 11.25390625 497.94921875 C9.78809011 495.40954463 8.9885826 492.77836714 8.25390625 489.94921875 C7.59390625 489.94921875 6.93390625 489.94921875 6.25390625 489.94921875 C5.59390625 487.63921875 4.93390625 485.32921875 4.25390625 482.94921875 C3.59390625 482.94921875 2.93390625 482.94921875 2.25390625 482.94921875 C1.92390625 481.29921875 1.59390625 479.64921875 1.25390625 477.94921875 C0.59390625 477.94921875 -0.06609375 477.94921875 -0.74609375 477.94921875 C-1.40609375 475.63921875 -2.06609375 473.32921875 -2.74609375 470.94921875 C-3.40609375 470.94921875 -4.06609375 470.94921875 -4.74609375 470.94921875 C-5.40609375 468.63921875 -6.06609375 466.32921875 -6.74609375 463.94921875 C-7.40609375 463.94921875 -8.06609375 463.94921875 -8.74609375 463.94921875 C-9.01421875 463.24796875 -9.28234375 462.54671875 -9.55859375 461.82421875 C-11.57516021 455.98111155 -11.57516021 455.98111155 -15.74609375 451.94921875 C-16.37109375 449.38671875 -16.37109375 449.38671875 -16.74609375 446.94921875 C-17.40609375 446.94921875 -18.06609375 446.94921875 -18.74609375 446.94921875 C-18.93945312 446.39492188 -19.1328125 445.840625 -19.33203125 445.26953125 C-19.59242188 444.54507812 -19.8528125 443.820625 -20.12109375 443.07421875 C-20.50394531 441.99527344 -20.50394531 441.99527344 -20.89453125 440.89453125 C-21.68487158 438.76763881 -21.68487158 438.76763881 -23.74609375 436.94921875 C-27.66017159 430.24585903 -27.17355904 423.3667493 -27.14482117 415.79467773 C-27.15026395 414.34132426 -27.1570169 412.8879752 -27.16496307 411.43463326 C-27.18297756 407.44797084 -27.18243236 403.46149482 -27.1788336 399.4748013 C-27.17820934 395.16993284 -27.1948371 390.86512669 -27.20935059 386.56028748 C-27.23215932 379.09363342 -27.24402675 371.62702605 -27.24847984 364.16033936 C-27.25496215 353.31364658 -27.27794626 342.46703715 -27.30482314 331.62037802 C-27.34814298 313.95412449 -27.37806459 296.28787447 -27.3996582 278.62158203 C-27.42051795 261.57826945 -27.44770932 244.53498697 -27.48364258 227.49169922 C-27.4858414 226.44778082 -27.48804023 225.40386242 -27.49030568 224.32831013 C-27.50138739 219.08440578 -27.51258447 213.84050169 -27.52382219 208.59659767 C-27.60200376 172.00089699 -27.67426881 135.40516853 -27.71351147 98.80940247 C-27.71440129 97.9810672 -27.71529111 97.15273194 -27.7162079 96.2992956 C-27.71966733 93.05405934 -27.72310641 89.80882306 -27.72637219 86.56358659 C-27.73550652 77.57429453 -27.75022221 68.58507489 -27.77772993 59.59581566 C-27.79065679 55.24564558 -27.79991158 50.89547254 -27.80845797 46.5452919 C-27.81310536 44.67704844 -27.81950194 42.8088081 -27.82805955 40.94057846 C-27.87243051 31.20836345 -27.71578429 21.50535158 -27.304245 11.78076172 C-27.26528384 10.81558184 -27.22632269 9.85040195 -27.18618089 8.8559742 C-27.14455896 7.96860006 -27.10293703 7.08122593 -27.06005383 6.16696167 C-27.02383897 5.37587446 -26.98762411 4.58478725 -26.95031184 3.76972771 C-26.74609375 1.94921875 -26.74609375 1.94921875 -25.74609375 0.94921875 C-17.2911184 -0.60444751 -8.55528322 -0.12691488 0 0 Z " fill="#F8FBFD" transform="translate(496.74609375,175.05078125)"/>
<path d="M0 0 C1.74829043 0.01672423 3.49658146 0.03338575 5.24487305 0.04998779 C8.88580135 0.08622959 12.5266377 0.12742558 16.16748047 0.17138672 C20.8357931 0.22674868 25.50405339 0.26307411 30.1725769 0.29501724 C33.77229382 0.3228248 37.37177105 0.36386649 40.97131348 0.40862274 C42.69367772 0.42781748 44.41610377 0.44211376 46.1385498 0.45142365 C48.53678106 0.46571029 50.93406729 0.49857672 53.33203125 0.53613281 C54.39799278 0.53633675 54.39799278 0.53633675 55.48548889 0.5365448 C58.47554108 0.60057897 60.30916168 0.64133175 62.71362305 2.51239014 C63.05562744 2.99814514 63.39763184 3.48390015 63.75 3.984375 C56.48676431 16.78633512 49.15592507 29.55111429 41.375 42.046875 C38.95315157 45.94793624 36.77161107 49.83130901 34.80078125 53.97265625 C33.47161594 56.51734077 31.93507354 58.8870882 30.375 61.296875 C27.54479375 65.67354417 24.99941807 70.11915089 22.5390625 74.7109375 C17.17915938 84.51792181 11.53224606 94.18483783 5.625 103.671875 C2.43936268 108.79715439 -0.54273817 114.00643137 -3.47753906 119.27685547 C-8.11977369 127.58883308 -12.9511688 135.79025314 -17.7578125 144.0078125 C-20.85502501 149.30304679 -23.93187487 154.60974896 -27 159.921875 C-31.68068646 168.02128976 -36.41781634 176.08660916 -41.16699219 184.14599609 C-44.87697337 190.44359715 -48.55490383 196.75784495 -52.171875 203.109375 C-52.69861816 204.03395508 -53.22536133 204.95853516 -53.76806641 205.91113281 C-54.81363276 207.74810172 -55.85766072 209.58594739 -56.89990234 211.42480469 C-59.55212941 216.0865064 -62.2636471 220.68872886 -65.14916992 225.21020508 C-66.31067156 227.08215727 -67.38153062 228.98868106 -68.4375 230.921875 C-70.751791 235.13744506 -73.1774311 239.28281304 -75.625 243.421875 C-80.05188008 250.91305937 -84.40873803 258.44328715 -88.75 265.984375 C-93.33195598 273.94283888 -97.93846528 281.88441281 -102.61547852 289.78735352 C-105.86762333 295.29765219 -109.02903334 300.85748419 -112.1875 306.421875 C-116.35845187 313.76341498 -120.66745504 320.99852485 -125.10742188 328.17993164 C-128.58995585 333.83904935 -131.91026103 339.57929492 -135.1875 345.359375 C-139.36130439 352.70491504 -143.57190964 360.02615859 -147.875 367.296875 C-148.38409912 368.16940918 -148.89319824 369.04194336 -149.41772461 369.94091797 C-149.89089111 370.7351416 -150.36405762 371.52936523 -150.8515625 372.34765625 C-151.26744629 373.05188721 -151.68333008 373.75611816 -152.11181641 374.48168945 C-152.48741699 374.97757568 -152.86301758 375.47346191 -153.25 375.984375 C-153.91 375.984375 -154.57 375.984375 -155.25 375.984375 C-157.74818944 373.17391188 -159.7222133 370.42189507 -161.25 366.984375 C-161.91 366.984375 -162.57 366.984375 -163.25 366.984375 C-163.58 365.334375 -163.91 363.684375 -164.25 361.984375 C-164.91 361.984375 -165.57 361.984375 -166.25 361.984375 C-166.8378125 360.4684375 -166.8378125 360.4684375 -167.4375 358.921875 C-168.89631122 355.50192605 -170.77290715 352.7167267 -172.98046875 349.7421875 C-176.05764396 345.48148337 -178.60599654 341.29740356 -179.25 335.984375 C-179.91 335.984375 -180.57 335.984375 -181.25 335.984375 C-181.61351562 335.09685547 -181.61351562 335.09685547 -181.984375 334.19140625 C-183.9642166 329.52354895 -186.05819877 325.94661101 -189.25 321.984375 C-190 319.171875 -190 319.171875 -190.25 316.984375 C-190.91 316.984375 -191.57 316.984375 -192.25 316.984375 C-192.58 315.334375 -192.91 313.684375 -193.25 311.984375 C-193.91 311.984375 -194.57 311.984375 -195.25 311.984375 C-195.91 309.674375 -196.57 307.364375 -197.25 304.984375 C-197.91 304.984375 -198.57 304.984375 -199.25 304.984375 C-201.07743708 300.26436609 -201.95002059 296.64122847 -199.9296875 291.859375 C-198.71451883 289.82561991 -197.45437768 287.81785663 -196.14453125 285.84375 C-194.24543752 282.97748895 -192.7491601 280.07482236 -191.25 276.984375 C-189.95091278 274.62950787 -188.59951537 272.31112564 -187.25 269.984375 C-186.59 269.984375 -185.93 269.984375 -185.25 269.984375 C-184.92 268.334375 -184.59 266.684375 -184.25 264.984375 C-183.59 264.984375 -182.93 264.984375 -182.25 264.984375 C-182.023125 263.97375 -181.79625 262.963125 -181.5625 261.921875 C-180.56039979 258.41102043 -178.88524701 255.89739747 -176.66796875 252.984375 C-173.77824409 248.90850991 -171.58525528 244.39276506 -169.25 239.984375 C-165.74050459 233.37606981 -162.03264507 227.01346441 -157.96875 220.73046875 C-155.74882672 217.18363678 -153.77737339 213.52790293 -151.796875 209.84375 C-150.06455819 206.64158863 -148.29830401 203.46248453 -146.5 200.296875 C-145.64148438 198.77513672 -145.64148438 198.77513672 -144.765625 197.22265625 C-144.26546875 196.48402344 -143.7653125 195.74539063 -143.25 194.984375 C-142.59 194.984375 -141.93 194.984375 -141.25 194.984375 C-141.20875 194.18 -141.1675 193.375625 -141.125 192.546875 C-140.09409014 188.34959915 -138.25881665 185.71710422 -135.80078125 182.21484375 C-133.73102511 179.23794008 -132.01096965 176.15412037 -130.25 172.984375 C-129.5211559 171.73418689 -128.79199178 170.48418529 -128.0625 169.234375 C-126.18941923 166.11245215 -126.18941923 166.11245215 -125.25 162.984375 C-124.59 162.654375 -123.93 162.324375 -123.25 161.984375 C-122.37915189 160.43236847 -121.57587048 158.8419714 -120.8125 157.234375 C-119.09941712 153.70301994 -117.32352775 150.32005008 -115.25 146.984375 C-114.64929688 145.92992187 -114.04859375 144.87546875 -113.4296875 143.7890625 C-111.32209312 140.0900879 -109.13828612 136.44093377 -106.9375 132.796875 C-99.22321951 120.09637785 -99.22321951 120.09637785 -92.25 106.984375 C-91.59 106.984375 -90.93 106.984375 -90.25 106.984375 C-89.59 104.674375 -88.93 102.364375 -88.25 99.984375 C-87.59 99.984375 -86.93 99.984375 -86.25 99.984375 C-86.09337891 98.88609375 -86.09337891 98.88609375 -85.93359375 97.765625 C-85.19153794 94.74651794 -84.11935442 92.9936496 -82.3125 90.484375 C-80.10903484 87.40926884 -78.54743356 84.54448254 -77.25 80.984375 C-76.59 80.984375 -75.93 80.984375 -75.25 80.984375 C-75.023125 80.159375 -74.79625 79.334375 -74.5625 78.484375 C-73.25974248 75.01035495 -71.66901876 72.32778988 -69.6640625 69.23828125 C-68.12610321 66.7868931 -66.74628407 64.2826168 -65.375 61.734375 C-62.64513134 56.66863934 -59.77706241 51.6962019 -56.86328125 46.734375 C-54.96536969 43.49919404 -53.10290215 40.24548279 -51.25 36.984375 C-50.59 36.984375 -49.93 36.984375 -49.25 36.984375 C-49.0953125 35.6540625 -49.0953125 35.6540625 -48.9375 34.296875 C-47.64661131 28.07713858 -43.28135561 22.89320811 -39.87109375 17.60546875 C-38.528971 15.43543414 -37.33957067 13.28819358 -36.25 10.984375 C-35.59 10.984375 -34.93 10.984375 -34.25 10.984375 C-34.1675 10.2625 -34.085 9.540625 -34 8.796875 C-33.01053173 5.08636898 -32.19792139 3.51116477 -29.25 0.984375 C-19.89747196 -1.04729733 -9.52597537 -0.104131 0 0 Z " fill="#F7FAFC" transform="translate(956.25,175.015625)"/>
<path d="M0 0 C0.87168823 -0.0065712 1.74337646 -0.0131424 2.64147949 -0.01991272 C5.53328532 -0.03966415 8.42503921 -0.05131143 11.31689453 -0.0612793 C12.30299839 -0.06535482 13.28910225 -0.06943035 14.30508804 -0.07362938 C19.52272585 -0.09449641 24.74033729 -0.10879629 29.95800781 -0.11816406 C35.35424986 -0.12923943 40.75008079 -0.16365056 46.14617729 -0.20333576 C50.28969098 -0.22944454 54.43310577 -0.23785071 58.57669449 -0.24144554 C60.56625271 -0.24632513 62.55580613 -0.25797791 64.54528427 -0.27648354 C67.32739895 -0.30075662 70.10843749 -0.2999319 72.890625 -0.29296875 C74.12668991 -0.31218384 74.12668991 -0.31218384 75.38772583 -0.33178711 C79.02484798 -0.29855102 81.11336091 -0.18053221 84.03468323 2.08343506 C85.49956799 4.07485508 86.83344438 6.02744756 88.04736328 8.1809082 C88.47210938 8.92147461 88.89685547 9.66204102 89.33447266 10.42504883 C89.764375 11.18881836 90.19427734 11.95258789 90.63720703 12.73950195 C91.49872227 14.26411511 92.3644626 15.78635023 93.23486328 17.3059082 C93.61263916 17.9769458 93.99041504 18.6479834 94.37963867 19.33935547 C95.60399342 21.22203538 96.96649457 22.6199749 98.57470703 24.17700195 C99.74267578 26.1496582 99.74267578 26.1496582 100.76220703 28.23950195 C101.10638672 28.93172852 101.45056641 29.62395508 101.80517578 30.3371582 C102.57470703 32.17700195 102.57470703 32.17700195 102.57470703 34.17700195 C103.23470703 34.50700195 103.89470703 34.83700195 104.57470703 35.17700195 C105.41921469 36.75399074 106.20247817 38.36416019 106.94970703 39.98950195 C108.75905056 43.75852022 110.4898872 46.32068729 113.57470703 49.17700195 C113.57470703 50.16700195 113.57470703 51.15700195 113.57470703 52.17700195 C114.23470703 51.84700195 114.89470703 51.51700195 115.57470703 51.17700195 C115.82220703 52.35262695 116.06970703 53.52825195 116.32470703 54.73950195 C117.85538934 60.79845276 121.11359433 65.51023473 124.57470703 70.61450195 C126.46063336 73.4009581 128.12608912 76.14094025 129.57470703 79.17700195 C130.9865454 82.13486168 132.59611715 84.78594988 134.44970703 87.48950195 C137.18973112 91.50411436 139.50593749 95.63989861 141.78955078 99.92700195 C144.48356266 104.83163627 147.35916771 109.62768798 150.23583984 114.42700195 C150.65317383 115.12825195 151.07050781 115.82950195 151.50048828 116.55200195 C151.8760083 117.17848633 152.25152832 117.8049707 152.63842773 118.45043945 C153.57470703 120.17700195 153.57470703 120.17700195 154.57470703 123.17700195 C155.56470703 123.83700195 156.55470703 124.49700195 157.57470703 125.17700195 C158.35439487 126.86632561 159.12761991 128.56054398 159.81298828 130.2902832 C160.90696106 132.99996962 162.24339121 135.5777663 163.57470703 138.17700195 C164.56470703 138.17700195 165.55470703 138.17700195 166.57470703 138.17700195 C166.71779297 139.47057617 166.71779297 139.47057617 166.86376953 140.7902832 C167.65657171 144.5669837 168.97461437 147.05521405 170.94970703 150.36450195 C171.68027139 151.60402894 172.41073462 152.84361554 173.14111328 154.08325195 C173.53443848 154.74325195 173.92776367 155.40325195 174.33300781 156.08325195 C176.08393022 159.03565278 177.79732844 162.00926427 179.51269531 164.98242188 C180.90131875 167.38895809 182.29409572 169.79304557 183.68798828 172.1965332 C185.6666862 175.60936431 187.6431037 179.02350083 189.61767578 182.4387207 C190.11291748 183.29506104 190.60815918 184.15140137 191.1184082 185.03369141 C192.06546273 186.67138922 193.0122544 188.30923908 193.95874023 189.94726562 C194.38888428 190.69081299 194.81902832 191.43436035 195.26220703 192.20043945 C195.63732422 192.84932129 196.01244141 193.49820313 196.39892578 194.16674805 C197.58000698 196.24827108 197.58000698 196.24827108 199.12564564 198.39491558 C200.87097694 201.74581738 200.94456197 203.93377409 200.93547058 207.70063782 C200.94165657 209.67985985 200.94165657 209.67985985 200.94796753 211.69906616 C200.93735133 213.15435997 200.92644692 214.6096517 200.9152832 216.06494141 C200.91443667 217.60260501 200.91491258 219.14026984 200.91661072 220.67793274 C200.91747109 224.84703164 200.89983854 229.01587136 200.87888885 233.18491006 C200.8601291 237.54376679 200.85837216 241.90262952 200.85481262 246.26152039 C200.84549009 254.51333153 200.8208735 262.76502337 200.79076415 271.01678199 C200.75722662 280.41210742 200.74073576 289.80743858 200.72567785 299.20280898 C200.69432413 318.52760759 200.64155958 337.85229518 200.57470703 357.17700195 C199.58470703 356.84700195 198.59470703 356.51700195 197.57470703 356.17700195 C197.57470703 355.51700195 197.57470703 354.85700195 197.57470703 354.17700195 C196.58470703 353.84700195 195.59470703 353.51700195 194.57470703 353.17700195 C193.8781234 351.52261582 193.2137382 349.85445877 192.57470703 348.17700195 C191.11637345 346.55185728 191.11637345 346.55185728 189.57470703 345.17700195 C188.58470703 343.69200195 188.58470703 343.69200195 187.57470703 342.17700195 C186.89408203 341.37262695 186.21345703 340.56825195 185.51220703 339.73950195 C183.659673 337.2893763 183.24503788 336.04984844 182.57470703 333.17700195 C182.07970703 332.68200195 181.58470703 332.18700195 181.07470703 331.67700195 C179.27322008 329.87551501 179.181868 328.60564583 178.57470703 326.17700195 C178.10033203 325.74387695 177.62595703 325.31075195 177.13720703 324.86450195 C175.57470703 323.17700195 175.57470703 323.17700195 174.69970703 319.80200195 C173.41054142 315.64802389 171.63693148 314.16070782 168.57470703 311.17700195 C167.76220703 308.36450195 167.76220703 308.36450195 167.57470703 306.17700195 C166.91470703 306.17700195 166.25470703 306.17700195 165.57470703 306.17700195 C165.17251953 305.09418945 165.17251953 305.09418945 164.76220703 303.98950195 C163.58171765 301.19360604 162.16305049 298.75806008 160.57470703 296.17700195 C159.54337339 294.17500136 158.56908874 292.16464171 157.63720703 290.11450195 C156.67559172 288.11608259 156.67559172 288.11608259 155.01220703 286.73950195 C153.12207582 284.68501151 152.94228233 282.89705918 152.57470703 280.17700195 C151.91470703 280.17700195 151.25470703 280.17700195 150.57470703 280.17700195 C150.12095703 278.93950195 149.66720703 277.70200195 149.19970703 276.42700195 C147.09478547 270.42492181 147.09478547 270.42492181 142.57470703 266.17700195 C141.88720703 263.55200195 141.88720703 263.55200195 141.57470703 261.17700195 C140.91470703 261.17700195 140.25470703 261.17700195 139.57470703 261.17700195 C138.58470703 257.71200195 138.58470703 257.71200195 137.57470703 254.17700195 C136.91470703 254.17700195 136.25470703 254.17700195 135.57470703 254.17700195 C134.58470703 250.71200195 134.58470703 250.71200195 133.57470703 247.17700195 C132.91470703 247.17700195 132.25470703 247.17700195 131.57470703 247.17700195 C130.75972141 245.57409666 129.94780776 243.96962918 129.13720703 242.36450195 C128.45851563 241.02452148 128.45851563 241.02452148 127.76611328 239.6574707 C126.57470703 237.17700195 126.57470703 237.17700195 125.57470703 234.17700195 C124.91470703 233.51700195 124.25470703 232.85700195 123.57470703 232.17700195 C123.57470703 230.85700195 123.57470703 229.53700195 123.57470703 228.17700195 C122.58470703 228.17700195 121.59470703 228.17700195 120.57470703 228.17700195 C120.34783203 227.29012695 120.12095703 226.40325195 119.88720703 225.48950195 C118.38494854 221.69808768 116.4685215 220.00023559 113.57470703 217.17700195 C111.57292293 213.78936732 110.30821627 210.40920253 109.13720703 206.67700195 C107.82633336 202.59259558 106.20206191 199.56713728 103.57470703 196.17700195 C102.91470703 195.84700195 102.25470703 195.51700195 101.57470703 195.17700195 C100.48368337 193.19952156 99.5714904 191.16992537 98.63720703 189.11450195 C97.6921408 187.12824906 97.6921408 187.12824906 96.07470703 185.86450195 C93.82930498 183.33842465 93.4526357 180.39607373 92.57470703 177.17700195 C91.91470703 176.51700195 91.25470703 175.85700195 90.57470703 175.17700195 C87.83155977 171.23372776 85.56530194 167.34392831 83.57470703 162.98950195 C82.70326134 161.00498672 82.70326134 161.00498672 80.57470703 160.17700195 C79.84395055 157.86293976 79.17332445 155.52871326 78.57470703 153.17700195 C77.91470703 153.17700195 77.25470703 153.17700195 76.57470703 153.17700195 C76.28595703 152.22825195 75.99720703 151.27950195 75.69970703 150.30200195 C74.80645594 147.12488617 74.80645594 147.12488617 72.57470703 145.17700195 C72.28595703 144.39325195 71.99720703 143.60950195 71.69970703 142.80200195 C70.74197046 140.08258106 70.74197046 140.08258106 68.57470703 138.30200195 C65.95522151 135.51879858 65.42257713 132.8511057 64.57470703 129.17700195 C63.91470703 129.17700195 63.25470703 129.17700195 62.57470703 129.17700195 C62.30658203 128.45512695 62.03845703 127.73325195 61.76220703 126.98950195 C60.58171765 124.19360604 59.16305049 121.75806008 57.57470703 119.17700195 C57.26533203 118.51700195 56.95595703 117.85700195 56.63720703 117.17700195 C55.58255227 115.01248694 55.58255227 115.01248694 53.57470703 112.86450195 C51.15748107 109.61635457 50.49530071 107.0895251 49.57470703 103.17700195 C48.91470703 103.17700195 48.25470703 103.17700195 47.57470703 103.17700195 C47.39294922 102.63430664 47.21119141 102.09161133 47.02392578 101.5324707 C46.77255859 100.81704102 46.52119141 100.10161133 46.26220703 99.36450195 C46.01857422 98.65680664 45.77494141 97.94911133 45.52392578 97.2199707 C44.50036025 95.0169881 43.31866352 93.83702471 41.57470703 92.17700195 C40.85742925 90.53148234 40.19145475 88.86277906 39.57470703 87.17700195 C38.40612762 84.62073449 37.58541434 83.18770926 35.57470703 81.17700195 C33.57470703 78.17700195 33.57470703 78.17700195 33.57470703 76.17700195 C32.58470703 75.18700195 32.58470703 75.18700195 31.57470703 74.17700195 C30.90029572 72.51345406 30.23467494 70.84633253 29.57470703 69.17700195 C27.97865131 66.13689581 26.54741447 64.15170641 24.01220703 61.80200195 C21.1329681 58.7012831 20.62297259 56.22031196 19.57470703 52.17700195 C18.07485094 50.50989849 18.07485094 50.50989849 16.57470703 49.17700195 C16.21308675 47.85106091 15.87742664 46.51761738 15.57470703 45.17700195 C14.91470703 44.51700195 14.25470703 43.85700195 13.57470703 43.17700195 C12.0217388 40.84754961 10.81694715 38.66148219 9.57470703 36.17700195 C8.91470703 35.18700195 8.25470703 34.19700195 7.57470703 33.17700195 C7.26533203 32.51700195 6.95595703 31.85700195 6.63720703 31.17700195 C5.69910533 29.15784267 5.69910533 29.15784267 4.19970703 27.86450195 C-0.15946128 23.33767332 -2.680478 16.78260999 -5.42529297 11.17700195 C-6.48731034 8.94960494 -6.48731034 8.94960494 -8.42529297 6.17700195 C-9.11843205 4.5211697 -9.79003721 2.85589217 -10.42529297 1.17700195 C-7.16884927 -0.45121989 -3.57943084 0.0116228 0 0 Z " fill="#F5F8FA" transform="translate(231.42529296875,175.822998046875)"/>
<path d="M0 0 C0.33 0 0.66 0 1 0 C1 35.97 1 71.94 1 109 C0.67 109 0.34 109 0 109 C0 73.03 0 37.06 0 0 Z " fill="#000002" transform="translate(433,396)"/>
<path d="M0 0 C0.33 0 0.66 0 1 0 C1 7.26 1 14.52 1 22 C0.67 22 0.34 22 0 22 C0 14.74 0 7.48 0 0 Z " fill="#000002" transform="translate(433,506)"/>
<path d="M0 0 C0.99 0 1.98 0 3 0 C3 0.66 3 1.32 3 2 C2.01 2 1.02 2 0 2 C0 1.34 0 0.68 0 0 Z " fill="#000002" transform="translate(620,491)"/>
<path d="M0 0 C0.33 0 0.66 0 1 0 C1 1.98 1 3.96 1 6 C0.67 6 0.34 6 0 6 C0 4.02 0 2.04 0 0 Z " fill="#000002" transform="translate(553,423)"/>
<path d="M0 0 C0.33 0.99 0.66 1.98 1 3 C0.01 3.495 0.01 3.495 -1 4 C-0.67 2.68 -0.34 1.36 0 0 Z " fill="#000002" transform="translate(1015,188)"/>
<path d="M0 0 C0 3 0 3 0 3 Z " fill="#000002" transform="translate(522,660)"/>
<path d="M0 0 C1 4 1 4 1 4 Z " fill="#000002" transform="translate(670,406)"/>
<path d="M0 0 C0.99 0.495 0.99 0.495 2 1 C1.67 1.66 1.34 2.32 1 3 C0.67 2.01 0.34 1.02 0 0 Z " fill="#000002" transform="translate(411,338)"/>
<path d="M0 0 C0 3 0 3 0 3 Z " fill="#000002" transform="translate(949,302)"/>
<path d="M0 0 C0 3 0 3 0 3 Z " fill="#000002" transform="translate(801,181)"/>
<path d="M0 0 C0.66 0 1.32 0 2 0 C1.67 0.66 1.34 1.32 1 2 C0.67 1.34 0.34 0.68 0 0 Z " fill="#000002" transform="translate(406,331)"/>
<path d="" fill="#000002" transform="translate(0,0)"/>
<path d="" fill="#000002" transform="translate(0,0)"/>
<path d="" fill="#000002" transform="translate(0,0)"/>
<path d="" fill="#000002" transform="translate(0,0)"/>
<path d="" fill="#000002" transform="translate(0,0)"/>
<path d="" fill="#000002" transform="translate(0,0)"/>
<path d="" fill="#000002" transform="translate(0,0)"/>
<path d="" fill="#000002" transform="translate(0,0)"/>
<path d="" fill="#000002" transform="translate(0,0)"/>
<path d="" fill="#000002" transform="translate(0,0)"/>
<path d="" fill="#000002" transform="translate(0,0)"/>
<path d="" fill="#000002" transform="translate(0,0)"/>
<path d="" fill="#000002" transform="translate(0,0)"/>
<path d="" fill="#000002" transform="translate(0,0)"/>
<path d="" fill="#000002" transform="translate(0,0)"/>
<path d="" fill="#000002" transform="translate(0,0)"/>
<path d="" fill="#000002" transform="translate(0,0)"/>
<path d="" fill="#000002" transform="translate(0,0)"/>
<path d="" fill="#000002" transform="translate(0,0)"/>
<path d="" fill="#000002" transform="translate(0,0)"/>
<path d="" fill="#000002" transform="translate(0,0)"/>
<path d="" fill="#000002" transform="translate(0,0)"/>
<path d="" fill="#000002" transform="translate(0,0)"/>
<path d="" fill="#000002" transform="translate(0,0)"/>
<path d="" fill="#000002" transform="translate(0,0)"/>
<path d="" fill="#000002" transform="translate(0,0)"/>
<path d="" fill="#000002" transform="translate(0,0)"/>
<path d="" fill="#000002" transform="translate(0,0)"/>
<path d="" fill="#000002" transform="translate(0,0)"/>
<path d="" fill="#000002" transform="translate(0,0)"/>
<path d="" fill="#000002" transform="translate(0,0)"/>
<path d="" fill="#000002" transform="translate(0,0)"/>
<path d="" fill="#000002" transform="translate(0,0)"/>
<path d="" fill="#000002" transform="translate(0,0)"/>
<path d="" fill="#000002" transform="translate(0,0)"/>
<path d="" fill="#000002" transform="translate(0,0)"/>
<path d="" fill="#000002" transform="translate(0,0)"/>
<path d="" fill="#000002" transform="translate(0,0)"/>
<path d="" fill="#000002" transform="translate(0,0)"/>
<path d="" fill="#000002" transform="translate(0,0)"/>
<path d="" fill="#000002" transform="translate(0,0)"/>
<path d="" fill="#000002" transform="translate(0,0)"/>
<path d="" fill="#000002" transform="translate(0,0)"/>
<path d="" fill="#000002" transform="translate(0,0)"/>
<path d="" fill="#000002" transform="translate(0,0)"/>
<path d="" fill="#000002" transform="translate(0,0)"/>
<path d="" fill="#000002" transform="translate(0,0)"/>
<path d="" fill="#000002" transform="translate(0,0)"/>
<path d="" fill="#000002" transform="translate(0,0)"/>
<path d="" fill="#000002" transform="translate(0,0)"/>
<path d="" fill="#000002" transform="translate(0,0)"/>
<path d="" fill="#000002" transform="translate(0,0)"/>
<path d="" fill="#000002" transform="translate(0,0)"/>
<path d="" fill="#000002" transform="translate(0,0)"/>
<path d="" fill="#000002" transform="translate(0,0)"/>
<path d="" fill="#000002" transform="translate(0,0)"/>
<path d="" fill="#000002" transform="translate(0,0)"/>
<path d="" fill="#000002" transform="translate(0,0)"/>
<path d="" fill="#000002" transform="translate(0,0)"/>
<path d="" fill="#000002" transform="translate(0,0)"/>
<path d="" fill="#000002" transform="translate(0,0)"/>
<path d="" fill="#000002" transform="translate(0,0)"/>
<path d="" fill="#000002" transform="translate(0,0)"/>
<path d="" fill="#000002" transform="translate(0,0)"/>
<path d="" fill="#000002" transform="translate(0,0)"/>
<path d="" fill="#000002" transform="translate(0,0)"/>
<path d="" fill="#000002" transform="translate(0,0)"/>
<path d="" fill="#000002" transform="translate(0,0)"/>
<path d="" fill="#000002" transform="translate(0,0)"/>
<path d="" fill="#000002" transform="translate(0,0)"/>
<path d="" fill="#000002" transform="translate(0,0)"/>
<path d="" fill="#000002" transform="translate(0,0)"/>
<path d="" fill="#000002" transform="translate(0,0)"/>
<path d="" fill="#000002" transform="translate(0,0)"/>
<path d="" fill="#000002" transform="translate(0,0)"/>
<path d="" fill="#000002" transform="translate(0,0)"/>
<path d="" fill="#000002" transform="translate(0,0)"/>
<path d="" fill="#000002" transform="translate(0,0)"/>
<path d="" fill="#000002" transform="translate(0,0)"/>
<path d="" fill="#000002" transform="translate(0,0)"/>
<path d="" fill="#000002" transform="translate(0,0)"/>
<path d="" fill="#000002" transform="translate(0,0)"/>
<path d="" fill="#000002" transform="translate(0,0)"/>
<path d="" fill="#000002" transform="translate(0,0)"/>
<path d="" fill="#000002" transform="translate(0,0)"/>
<path d="" fill="#000002" transform="translate(0,0)"/>
<path d="" fill="#000002" transform="translate(0,0)"/>
<path d="" fill="#000002" transform="translate(0,0)"/>
<path d="" fill="#000002" transform="translate(0,0)"/>
<path d="" fill="#000002" transform="translate(0,0)"/>
<path d="" fill="#000002" transform="translate(0,0)"/>
<path d="" fill="#000002" transform="translate(0,0)"/>
<path d="" fill="#000002" transform="translate(0,0)"/>
<path d="" fill="#000002" transform="translate(0,0)"/>
<path d="" fill="#000002" transform="translate(0,0)"/>
<path d="" fill="#000002" transform="translate(0,0)"/>
<path d="" fill="#000002" transform="translate(0,0)"/>
<path d="" fill="#000002" transform="translate(0,0)"/>
<path d="" fill="#000002" transform="translate(0,0)"/>
<path d="" fill="#000002" transform="translate(0,0)"/>
<path d="" fill="#000002" transform="translate(0,0)"/>
<path d="" fill="#000002" transform="translate(0,0)"/>
<path d="" fill="#000002" transform="translate(0,0)"/>
<path d="" fill="#000002" transform="translate(0,0)"/>
<path d="" fill="#000002" transform="translate(0,0)"/>
<path d="" fill="#000002" transform="translate(0,0)"/>
<path d="" fill="#000002" transform="translate(0,0)"/>
<path d="" fill="#000002" transform="translate(0,0)"/>
<path d="" fill="#000002" transform="translate(0,0)"/>
<path d="" fill="#000002" transform="translate(0,0)"/>
<path d="" fill="#000002" transform="translate(0,0)"/>
<path d="" fill="#000002" transform="translate(0,0)"/>
<path d="" fill="#000002" transform="translate(0,0)"/>
<path d="" fill="#000002" transform="translate(0,0)"/>
<path d="" fill="#000002" transform="translate(0,0)"/>
<path d="" fill="#000002" transform="translate(0,0)"/>
<path d="" fill="#000002" transform="translate(0,0)"/>
<path d="" fill="#000002" transform="translate(0,0)"/>
<path d="" fill="#000002" transform="translate(0,0)"/>
<path d="" fill="#000002" transform="translate(0,0)"/>
<path d="" fill="#000002" transform="translate(0,0)"/>
<path d="" fill="#000002" transform="translate(0,0)"/>
<path d="" fill="#000002" transform="translate(0,0)"/>
<path d="" fill="#000002" transform="translate(0,0)"/>
<path d="" fill="#000002" transform="translate(0,0)"/>
<path d="" fill="#000002" transform="translate(0,0)"/>
<path d="" fill="#000002" transform="translate(0,0)"/>
<path d="" fill="#000002" transform="translate(0,0)"/>
<path d="" fill="#000002" transform="translate(0,0)"/>
<path d="" fill="#000002" transform="translate(0,0)"/>
<path d="" fill="#000002" transform="translate(0,0)"/>
<path d="" fill="#000002" transform="translate(0,0)"/>
<path d="" fill="#000002" transform="translate(0,0)"/>
<path d="" fill="#000002" transform="translate(0,0)"/>
<path d="" fill="#000002" transform="translate(0,0)"/>
<path d="" fill="#000002" transform="translate(0,0)"/>
<path d="" fill="#000002" transform="translate(0,0)"/>
<path d="" fill="#000002" transform="translate(0,0)"/>
<path d="" fill="#000002" transform="translate(0,0)"/>
<path d="" fill="#000002" transform="translate(0,0)"/>
<path d="" fill="#000002" transform="translate(0,0)"/>
<path d="" fill="#000002" transform="translate(0,0)"/>
<path d="" fill="#000002" transform="translate(0,0)"/>
<path d="" fill="#000002" transform="translate(0,0)"/>
<path d="" fill="#000002" transform="translate(0,0)"/>
<path d="" fill="#000002" transform="translate(0,0)"/>
<path d="" fill="#000002" transform="translate(0,0)"/>
<path d="" fill="#000002" transform="translate(0,0)"/>
<path d="" fill="#000002" transform="translate(0,0)"/>
<path d="" fill="#000002" transform="translate(0,0)"/>
<path d="" fill="#000002" transform="translate(0,0)"/>
<path d="" fill="#000002" transform="translate(0,0)"/>
<path d="" fill="#000002" transform="translate(0,0)"/>
<path d="" fill="#000002" transform="translate(0,0)"/>
<path d="" fill="#000002" transform="translate(0,0)"/>
<path d="" fill="#000002" transform="translate(0,0)"/>
<path d="" fill="#000002" transform="translate(0,0)"/>
<path d="" fill="#000002" transform="translate(0,0)"/>
<path d="" fill="#000002" transform="translate(0,0)"/>
<path d="" fill="#000002" transform="translate(0,0)"/>
<path d="" fill="#000002" transform="translate(0,0)"/>
<path d="" fill="#000002" transform="translate(0,0)"/>
<path d="" fill="#000002" transform="translate(0,0)"/>
<path d="" fill="#000002" transform="translate(0,0)"/>
<path d="" fill="#000002" transform="translate(0,0)"/>
<path d="" fill="#000002" transform="translate(0,0)"/>
<path d="" fill="#000002" transform="translate(0,0)"/>
<path d="" fill="#000002" transform="translate(0,0)"/>
<path d="" fill="#000002" transform="translate(0,0)"/>
<path d="" fill="#000002" transform="translate(0,0)"/>
<path d="" fill="#000002" transform="translate(0,0)"/>
<path d="" fill="#000002" transform="translate(0,0)"/>
<path d="" fill="#000002" transform="translate(0,0)"/>
<path d="" fill="#000002" transform="translate(0,0)"/>
<path d="" fill="#000002" transform="translate(0,0)"/>
<path d="" fill="#000002" transform="translate(0,0)"/>
<path d="" fill="#000002" transform="translate(0,0)"/>
<path d="" fill="#000002" transform="translate(0,0)"/>
<path d="" fill="#000002" transform="translate(0,0)"/>
<path d="" fill="#000002" transform="translate(0,0)"/>
<path d="" fill="#000002" transform="translate(0,0)"/>
<path d="" fill="#000002" transform="translate(0,0)"/>
<path d="" fill="#000002" transform="translate(0,0)"/>
<path d="" fill="#000002" transform="translate(0,0)"/>
<path d="" fill="#000002" transform="translate(0,0)"/>
<path d="" fill="#000002" transform="translate(0,0)"/>
<path d="" fill="#FAFDFF" transform="translate(0,0)"/>
<path d="" fill="#000002" transform="translate(0,0)"/>
<path d="" fill="#000002" transform="translate(0,0)"/>
<path d="" fill="#000002" transform="translate(0,0)"/>
<path d="" fill="#000002" transform="translate(0,0)"/>
<path d="" fill="#000002" transform="translate(0,0)"/>
<path d="" fill="#000002" transform="translate(0,0)"/>
<path d="" fill="#000002" transform="translate(0,0)"/>
<path d="" fill="#000002" transform="translate(0,0)"/>
<path d="" fill="#000002" transform="translate(0,0)"/>
<path d="" fill="#000002" transform="translate(0,0)"/>
<path d="" fill="#000002" transform="translate(0,0)"/>
<path d="" fill="#000002" transform="translate(0,0)"/>
<path d="" fill="#000002" transform="translate(0,0)"/>
<path d="" fill="#000002" transform="translate(0,0)"/>
<path d="" fill="#000002" transform="translate(0,0)"/>
<path d="" fill="#000002" transform="translate(0,0)"/>
<path d="" fill="#000002" transform="translate(0,0)"/>
<path d="" fill="#000002" transform="translate(0,0)"/>
<path d="" fill="#000002" transform="translate(0,0)"/>
<path d="" fill="#000002" transform="translate(0,0)"/>
<path d="" fill="#000002" transform="translate(0,0)"/>
<path d="" fill="#000002" transform="translate(0,0)"/>
<path d="" fill="#000002" transform="translate(0,0)"/>
<path d="" fill="#000002" transform="translate(0,0)"/>
<path d="" fill="#000002" transform="translate(0,0)"/>
<path d="" fill="#000002" transform="translate(0,0)"/>
<path d="" fill="#000002" transform="translate(0,0)"/>
<path d="" fill="#000002" transform="translate(0,0)"/>
<path d="" fill="#000002" transform="translate(0,0)"/>
<path d="" fill="#000002" transform="translate(0,0)"/>
<path d="" fill="#000002" transform="translate(0,0)"/>
<path d="" fill="#000002" transform="translate(0,0)"/>
<path d="" fill="#000002" transform="translate(0,0)"/>
<path d="" fill="#000002" transform="translate(0,0)"/>
<path d="" fill="#000002" transform="translate(0,0)"/>
<path d="" fill="#000002" transform="translate(0,0)"/>
<path d="" fill="#000002" transform="translate(0,0)"/>
<path d="" fill="#000002" transform="translate(0,0)"/>
<path d="" fill="#000002" transform="translate(0,0)"/>
<path d="" fill="#000002" transform="translate(0,0)"/>
<path d="" fill="#000002" transform="translate(0,0)"/>
<path d="" fill="#000002" transform="translate(0,0)"/>
<path d="" fill="#000002" transform="translate(0,0)"/>
<path d="" fill="#000002" transform="translate(0,0)"/>
<path d="" fill="#000002" transform="translate(0,0)"/>
<path d="" fill="#000002" transform="translate(0,0)"/>
<path d="" fill="#000002" transform="translate(0,0)"/>
<path d="" fill="#000002" transform="translate(0,0)"/>
<path d="" fill="#000002" transform="translate(0,0)"/>
<path d="" fill="#000002" transform="translate(0,0)"/>
<path d="" fill="#000002" transform="translate(0,0)"/>
<path d="" fill="#000002" transform="translate(0,0)"/>
<path d="" fill="#000002" transform="translate(0,0)"/>
<path d="" fill="#000002" transform="translate(0,0)"/>
<path d="" fill="#000002" transform="translate(0,0)"/>
<path d="" fill="#000002" transform="translate(0,0)"/>
<path d="" fill="#000002" transform="translate(0,0)"/>
<path d="" fill="#000002" transform="translate(0,0)"/>
<path d="" fill="#000002" transform="translate(0,0)"/>
<path d="" fill="#000002" transform="translate(0,0)"/>
<path d="" fill="#000002" transform="translate(0,0)"/>
<path d="" fill="#000002" transform="translate(0,0)"/>
<path d="" fill="#000002" transform="translate(0,0)"/>
<path d="" fill="#000002" transform="translate(0,0)"/>
<path d="" fill="#000002" transform="translate(0,0)"/>
<path d="" fill="#000002" transform="translate(0,0)"/>
<path d="" fill="#000002" transform="translate(0,0)"/>
<path d="" fill="#000002" transform="translate(0,0)"/>
<path d="" fill="#000002" transform="translate(0,0)"/>
<path d="" fill="#000002" transform="translate(0,0)"/>
<path d="" fill="#000002" transform="translate(0,0)"/>
<path d="" fill="#000002" transform="translate(0,0)"/>
<path d="" fill="#000002" transform="translate(0,0)"/>
<path d="" fill="#000002" transform="translate(0,0)"/>
<path d="" fill="#000002" transform="translate(0,0)"/>
<path d="" fill="#000002" transform="translate(0,0)"/>
<path d="" fill="#000002" transform="translate(0,0)"/>
<path d="" fill="#000002" transform="translate(0,0)"/>
<path d="" fill="#000002" transform="translate(0,0)"/>
<path d="" fill="#000002" transform="translate(0,0)"/>
<path d="" fill="#000002" transform="translate(0,0)"/>
<path d="" fill="#000002" transform="translate(0,0)"/>
<path d="" fill="#000002" transform="translate(0,0)"/>
<path d="" fill="#000002" transform="translate(0,0)"/>
<path d="" fill="#000002" transform="translate(0,0)"/>
<path d="" fill="#000002" transform="translate(0,0)"/>
<path d="" fill="#000002" transform="translate(0,0)"/>
<path d="" fill="#000002" transform="translate(0,0)"/>
<path d="" fill="#000002" transform="translate(0,0)"/>
<path d="" fill="#000002" transform="translate(0,0)"/>
<path d="" fill="#000002" transform="translate(0,0)"/>
<path d="" fill="#000002" transform="translate(0,0)"/>
<path d="" fill="#000002" transform="translate(0,0)"/>
<path d="" fill="#000002" transform="translate(0,0)"/>
<path d="" fill="#000002" transform="translate(0,0)"/>
<path d="" fill="#000002" transform="translate(0,0)"/>
<path d="" fill="#000002" transform="translate(0,0)"/>
<path d="" fill="#000002" transform="translate(0,0)"/>
<path d="" fill="#000002" transform="translate(0,0)"/>
<path d="" fill="#000002" transform="translate(0,0)"/>
<path d="" fill="#000002" transform="translate(0,0)"/>
<path d="" fill="#000002" transform="translate(0,0)"/>
<path d="" fill="#000002" transform="translate(0,0)"/>
<path d="" fill="#000002" transform="translate(0,0)"/>
<path d="" fill="#000002" transform="translate(0,0)"/>
<path d="" fill="#000002" transform="translate(0,0)"/>
<path d="" fill="#000002" transform="translate(0,0)"/>
<path d="" fill="#000002" transform="translate(0,0)"/>
<path d="" fill="#000002" transform="translate(0,0)"/>
<path d="" fill="#000002" transform="translate(0,0)"/>
<path d="" fill="#000002" transform="translate(0,0)"/>
<path d="" fill="#000002" transform="translate(0,0)"/>
<path d="" fill="#000002" transform="translate(0,0)"/>
<path d="" fill="#000002" transform="translate(0,0)"/>
<path d="" fill="#000002" transform="translate(0,0)"/>
<path d="" fill="#000002" transform="translate(0,0)"/>
<path d="" fill="#000002" transform="translate(0,0)"/>
<path d="" fill="#000002" transform="translate(0,0)"/>
<path d="" fill="#000002" transform="translate(0,0)"/>
<path d="" fill="#000002" transform="translate(0,0)"/>
<path d="" fill="#000002" transform="translate(0,0)"/>
<path d="" fill="#000002" transform="translate(0,0)"/>
<path d="" fill="#000002" transform="translate(0,0)"/>
<path d="" fill="#000002" transform="translate(0,0)"/>
<path d="" fill="#000002" transform="translate(0,0)"/>
<path d="" fill="#000002" transform="translate(0,0)"/>
<path d="" fill="#000002" transform="translate(0,0)"/>
<path d="" fill="#000002" transform="translate(0,0)"/>
<path d="" fill="#000002" transform="translate(0,0)"/>
<path d="" fill="#000002" transform="translate(0,0)"/>
<path d="" fill="#000002" transform="translate(0,0)"/>
<path d="" fill="#000002" transform="translate(0,0)"/>
<path d="" fill="#000002" transform="translate(0,0)"/>
<path d="" fill="#000002" transform="translate(0,0)"/>
<path d="" fill="#000002" transform="translate(0,0)"/>
<path d="" fill="#000002" transform="translate(0,0)"/>
<path d="" fill="#000002" transform="translate(0,0)"/>
<path d="" fill="#000002" transform="translate(0,0)"/>
<path d="" fill="#000002" transform="translate(0,0)"/>
<path d="" fill="#000002" transform="translate(0,0)"/>
<path d="" fill="#000002" transform="translate(0,0)"/>
<path d="" fill="#000002" transform="translate(0,0)"/>
<path d="" fill="#000002" transform="translate(0,0)"/>
<path d="" fill="#000002" transform="translate(0,0)"/>
<path d="" fill="#000002" transform="translate(0,0)"/>
<path d="" fill="#000002" transform="translate(0,0)"/>
<path d="" fill="#000002" transform="translate(0,0)"/>
<path d="" fill="#000002" transform="translate(0,0)"/>
<path d="" fill="#000002" transform="translate(0,0)"/>
<path d="" fill="#000002" transform="translate(0,0)"/>
<path d="" fill="#000002" transform="translate(0,0)"/>
<path d="" fill="#000002" transform="translate(0,0)"/>
<path d="" fill="#000002" transform="translate(0,0)"/>
<path d="" fill="#000002" transform="translate(0,0)"/>
<path d="" fill="#000002" transform="translate(0,0)"/>
<path d="" fill="#000002" transform="translate(0,0)"/>
<path d="" fill="#000002" transform="translate(0,0)"/>
<path d="" fill="#000002" transform="translate(0,0)"/>
<path d="" fill="#000002" transform="translate(0,0)"/>
<path d="" fill="#000002" transform="translate(0,0)"/>
<path d="" fill="#000002" transform="translate(0,0)"/>
<path d="" fill="#000002" transform="translate(0,0)"/>
<path d="" fill="#000002" transform="translate(0,0)"/>
<path d="" fill="#000002" transform="translate(0,0)"/>
<path d="" fill="#000002" transform="translate(0,0)"/>
<path d="" fill="#000002" transform="translate(0,0)"/>
<path d="" fill="#000002" transform="translate(0,0)"/>
<path d="" fill="#000002" transform="translate(0,0)"/>
<path d="" fill="#000002" transform="translate(0,0)"/>
<path d="" fill="#000002" transform="translate(0,0)"/>
<path d="" fill="#000002" transform="translate(0,0)"/>
<path d="" fill="#000002" transform="translate(0,0)"/>
<path d="" fill="#000002" transform="translate(0,0)"/>
<path d="" fill="#000002" transform="translate(0,0)"/>
<path d="" fill="#000002" transform="translate(0,0)"/>
<path d="" fill="#000002" transform="translate(0,0)"/>
<path d="" fill="#000002" transform="translate(0,0)"/>
<path d="" fill="#000002" transform="translate(0,0)"/>
<path d="" fill="#000002" transform="translate(0,0)"/>
<path d="" fill="#000002" transform="translate(0,0)"/>
<path d="" fill="#000002" transform="translate(0,0)"/>
<path d="" fill="#000002" transform="translate(0,0)"/>
<path d="" fill="#000002" transform="translate(0,0)"/>
<path d="" fill="#000002" transform="translate(0,0)"/>
<path d="" fill="#000002" transform="translate(0,0)"/>
<path d="" fill="#000002" transform="translate(0,0)"/>
<path d="" fill="#000002" transform="translate(0,0)"/>
<path d="" fill="#000002" transform="translate(0,0)"/>
<path d="" fill="#000002" transform="translate(0,0)"/>
<path d="" fill="#000002" transform="translate(0,0)"/>
<path d="" fill="#000002" transform="translate(0,0)"/>
<path d="" fill="#000002" transform="translate(0,0)"/>
<path d="" fill="#000002" transform="translate(0,0)"/>
<path d="" fill="#000002" transform="translate(0,0)"/>
<path d="" fill="#000002" transform="translate(0,0)"/>
<path d="" fill="#000002" transform="translate(0,0)"/>
<path d="" fill="#000002" transform="translate(0,0)"/>
<path d="" fill="#000002" transform="translate(0,0)"/>
<path d="" fill="#000002" transform="translate(0,0)"/>
<path d="" fill="#000002" transform="translate(0,0)"/>
<path d="" fill="#000002" transform="translate(0,0)"/>
<path d="" fill="#000002" transform="translate(0,0)"/>
<path d="" fill="#000002" transform="translate(0,0)"/>
<path d="" fill="#000002" transform="translate(0,0)"/>
<path d="" fill="#000002" transform="translate(0,0)"/>
<path d="" fill="#000002" transform="translate(0,0)"/>
<path d="" fill="#000002" transform="translate(0,0)"/>
<path d="" fill="#000002" transform="translate(0,0)"/>
<path d="" fill="#000002" transform="translate(0,0)"/>
<path d="" fill="#000002" transform="translate(0,0)"/>
<path d="" fill="#000002" transform="translate(0,0)"/>
<path d="" fill="#000002" transform="translate(0,0)"/>
<path d="" fill="#000002" transform="translate(0,0)"/>
<path d="" fill="#000002" transform="translate(0,0)"/>
<path d="" fill="#000002" transform="translate(0,0)"/>
<path d="" fill="#000002" transform="translate(0,0)"/>
<path d="" fill="#000002" transform="translate(0,0)"/>
<path d="" fill="#000002" transform="translate(0,0)"/>
<path d="" fill="#000002" transform="translate(0,0)"/>
<path d="" fill="#000002" transform="translate(0,0)"/>
<path d="" fill="#000002" transform="translate(0,0)"/>
<path d="" fill="#000002" transform="translate(0,0)"/>
<path d="" fill="#000002" transform="translate(0,0)"/>
<path d="" fill="#000002" transform="translate(0,0)"/>
<path d="" fill="#000002" transform="translate(0,0)"/>
<path d="" fill="#000002" transform="translate(0,0)"/>
<path d="" fill="#000002" transform="translate(0,0)"/>
<path d="" fill="#000002" transform="translate(0,0)"/>
<path d="" fill="#000002" transform="translate(0,0)"/>
<path d="" fill="#000002" transform="translate(0,0)"/>
<path d="" fill="#000002" transform="translate(0,0)"/>
<path d="" fill="#000002" transform="translate(0,0)"/>
<path d="" fill="#000002" transform="translate(0,0)"/>
<path d="" fill="#000002" transform="translate(0,0)"/>
<path d="" fill="#000002" transform="translate(0,0)"/>
<path d="" fill="#000002" transform="translate(0,0)"/>
<path d="" fill="#000002" transform="translate(0,0)"/>
<path d="" fill="#000002" transform="translate(0,0)"/>
<path d="" fill="#000002" transform="translate(0,0)"/>
<path d="" fill="#000002" transform="translate(0,0)"/>
<path d="" fill="#000002" transform="translate(0,0)"/>
<path d="" fill="#000002" transform="translate(0,0)"/>
<path d="" fill="#000002" transform="translate(0,0)"/>
<path d="" fill="#000002" transform="translate(0,0)"/>
<path d="" fill="#000002" transform="translate(0,0)"/>
<path d="" fill="#000002" transform="translate(0,0)"/>
<path d="" fill="#000002" transform="translate(0,0)"/>
<path d="" fill="#000002" transform="translate(0,0)"/>
<path d="" fill="#000002" transform="translate(0,0)"/>
<path d="" fill="#000002" transform="translate(0,0)"/>
<path d="" fill="#000002" transform="translate(0,0)"/>
<path d="" fill="#000002" transform="translate(0,0)"/>
<path d="" fill="#000002" transform="translate(0,0)"/>
<path d="" fill="#000002" transform="translate(0,0)"/>
<path d="" fill="#000002" transform="translate(0,0)"/>
<path d="" fill="#000002" transform="translate(0,0)"/>
<path d="" fill="#000002" transform="translate(0,0)"/>
<path d="" fill="#000002" transform="translate(0,0)"/>
<path d="" fill="#000002" transform="translate(0,0)"/>
<path d="" fill="#000002" transform="translate(0,0)"/>
<path d="" fill="#000002" transform="translate(0,0)"/>
<path d="" fill="#000002" transform="translate(0,0)"/>
<path d="" fill="#000002" transform="translate(0,0)"/>
<path d="" fill="#000002" transform="translate(0,0)"/>
<path d="" fill="#000002" transform="translate(0,0)"/>
<path d="" fill="#000002" transform="translate(0,0)"/>
<path d="" fill="#000002" transform="translate(0,0)"/>
<path d="" fill="#000002" transform="translate(0,0)"/>
<path d="" fill="#000002" transform="translate(0,0)"/>
<path d="" fill="#000002" transform="translate(0,0)"/>
<path d="" fill="#000002" transform="translate(0,0)"/>
<path d="" fill="#000002" transform="translate(0,0)"/>
<path d="" fill="#000002" transform="translate(0,0)"/>
<path d="" fill="#000002" transform="translate(0,0)"/>
<path d="" fill="#000002" transform="translate(0,0)"/>
<path d="" fill="#000002" transform="translate(0,0)"/>
<path d="" fill="#000002" transform="translate(0,0)"/>
<path d="" fill="#696A6B" transform="translate(0,0)"/>
<path d="" fill="#000002" transform="translate(0,0)"/>
<path d="" fill="#000002" transform="translate(0,0)"/>
<path d="" fill="#000002" transform="translate(0,0)"/>
<path d="" fill="#000002" transform="translate(0,0)"/>
<path d="" fill="#000002" transform="translate(0,0)"/>
<path d="" fill="#000002" transform="translate(0,0)"/>
<path d="" fill="#000002" transform="translate(0,0)"/>
<path d="" fill="#000002" transform="translate(0,0)"/>
<path d="" fill="#000002" transform="translate(0,0)"/>
<path d="" fill="#000002" transform="translate(0,0)"/>
<path d="" fill="#000002" transform="translate(0,0)"/>
<path d="" fill="#000002" transform="translate(0,0)"/>
<path d="" fill="#000002" transform="translate(0,0)"/>
<path d="" fill="#000002" transform="translate(0,0)"/>
<path d="" fill="#000002" transform="translate(0,0)"/>
<path d="" fill="#000002" transform="translate(0,0)"/>
<path d="" fill="#000002" transform="translate(0,0)"/>
<path d="" fill="#000002" transform="translate(0,0)"/>
<path d="" fill="#000002" transform="translate(0,0)"/>
<path d="" fill="#000002" transform="translate(0,0)"/>
<path d="" fill="#000002" transform="translate(0,0)"/>
<path d="" fill="#000002" transform="translate(0,0)"/>
<path d="" fill="#000002" transform="translate(0,0)"/>
<path d="" fill="#000002" transform="translate(0,0)"/>
<path d="" fill="#000002" transform="translate(0,0)"/>
<path d="" fill="#000002" transform="translate(0,0)"/>
<path d="" fill="#000002" transform="translate(0,0)"/>
<path d="" fill="#000002" transform="translate(0,0)"/>
<path d="" fill="#000002" transform="translate(0,0)"/>
<path d="" fill="#000002" transform="translate(0,0)"/>
<path d="" fill="#000002" transform="translate(0,0)"/>
<path d="" fill="#000002" transform="translate(0,0)"/>
<path d="" fill="#000002" transform="translate(0,0)"/>
<path d="" fill="#000002" transform="translate(0,0)"/>
<path d="" fill="#000002" transform="translate(0,0)"/>
<path d="" fill="#000002" transform="translate(0,0)"/>
<path d="" fill="#000002" transform="translate(0,0)"/>
<path d="" fill="#000002" transform="translate(0,0)"/>
<path d="" fill="#000002" transform="translate(0,0)"/>
<path d="" fill="#000002" transform="translate(0,0)"/>
<path d="" fill="#000002" transform="translate(0,0)"/>
<path d="" fill="#000002" transform="translate(0,0)"/>
<path d="" fill="#000002" transform="translate(0,0)"/>
<path d="" fill="#000002" transform="translate(0,0)"/>
<path d="" fill="#000002" transform="translate(0,0)"/>
<path d="" fill="#000002" transform="translate(0,0)"/>
<path d="" fill="#000002" transform="translate(0,0)"/>
<path d="" fill="#000002" transform="translate(0,0)"/>
<path d="" fill="#000002" transform="translate(0,0)"/>
<path d="" fill="#000002" transform="translate(0,0)"/>
<path d="" fill="#000002" transform="translate(0,0)"/>
<path d="" fill="#000002" transform="translate(0,0)"/>
<path d="" fill="#000002" transform="translate(0,0)"/>
<path d="" fill="#000002" transform="translate(0,0)"/>
<path d="" fill="#000002" transform="translate(0,0)"/>
<path d="" fill="#000002" transform="translate(0,0)"/>
</svg>
